  0
SECTION
  2
HEADER
  9
$ACADVER
  1
AC1009
  9
$EXTMIN
 10
0.0
 20
0.0
 30
0.0
  9
$EXTMAX
 10
1000.0
 20
1000.0
 30
0.0
  9
$FILLMODE
 70
 0
  9
$SPLFRAME
 70
 1
  0
ENDSEC
  0
SECTION
  2
TABLES
  0
TABLE
  2
LAYER
 70
1
  0
LAYER
  2
0
 70
     0
 62
     7
  6
CONTINUOUS
  0
ENDTAB
  0
ENDSEC
  0
SECTION
  2
ENTITIES
  0
LINE
  8
0
 62
     0
 10
0.0950846
 20
117.38
 30
0.0
 11
320.517
 21
117.38
 31
0.0
  0
LINE
  8
0
 62
     0
 10
320.517
 20
117.38
 30
0.0
 11
320.517
 21
0.337619
 31
0.0
  0
LINE
  8
0
 62
     0
 10
320.517
 20
0.337619
 30
0.0
 11
0.0950846
 21
0.337619
 31
0.0
  0
LINE
  8
0
 62
     0
 10
0.0950846
 20
0.337619
 30
0.0
 11
0.0950846
 21
117.38
 31
0.0
  0
LINE
  8
0
 62
     0
 10
121.529
 20
5.14008
 30
0.0
 11
135.394
 21
3.19016
 31
0.0
  0
LINE
  8
0
 62
     0
 10
135.394
 20
3.19016
 30
0.0
 11
137.341
 21
17.0546
 31
0.0
  0
LINE
  8
0
 62
     0
 10
137.341
 20
17.0546
 30
0.0
 11
123.478
 21
19.0032
 31
0.0
  0
LINE
  8
0
 62
     0
 10
123.478
 20
19.0032
 30
0.0
 11
121.529
 21
5.14008
 31
0.0
  0
LINE
  8
0
 62
     0
 10
191.138
 20
21.8543
 30
0.0
 11
191.265
 21
20.9434
 31
0.0
  0
LINE
  8
0
 62
     0
 10
191.265
 20
20.9434
 30
0.0
 11
189.557
 21
20.7036
 31
0.0
  0
LINE
  8
0
 62
     0
 10
189.557
 20
20.7036
 30
0.0
 11
190.008
 21
17.5038
 31
0.0
  0
LINE
  8
0
 62
     0
 10
190.008
 20
17.5038
 30
0.0
 11
188.496
 21
17.293
 31
0.0
  0
LINE
  8
0
 62
     0
 10
188.496
 20
17.293
 30
0.0
 11
187.843
 21
21.9466
 31
0.0
  0
LINE
  8
0
 62
     0
 10
187.843
 20
21.9466
 30
0.0
 11
173.98
 21
19.9981
 31
0.0
  0
LINE
  8
0
 62
     0
 10
173.98
 20
19.9981
 30
0.0
 11
174.633
 21
15.3431
 31
0.0
  0
LINE
  8
0
 62
     0
 10
174.633
 20
15.3431
 30
0.0
 11
173.123
 21
15.1309
 31
0.0
  0
LINE
  8
0
 62
     0
 10
173.123
 20
15.1309
 30
0.0
 11
172.674
 21
18.3307
 31
0.0
  0
LINE
  8
0
 62
     0
 10
172.674
 20
18.3307
 30
0.0
 11
170.965
 21
18.0909
 31
0.0
  0
LINE
  8
0
 62
     0
 10
170.965
 20
18.0909
 30
0.0
 11
170.838
 21
19.0018
 31
0.0
  0
LINE
  8
0
 62
     0
 10
170.838
 20
19.0018
 30
0.0
 11
167.569
 21
18.5429
 31
0.0
  0
LINE
  8
0
 62
     0
 10
167.569
 20
18.5429
 30
0.0
 11
167.698
 21
17.632
 31
0.0
  0
LINE
  8
0
 62
     0
 10
167.698
 20
17.632
 30
0.0
 11
165.989
 21
17.3909
 31
0.0
  0
LINE
  8
0
 62
     0
 10
165.989
 20
17.3909
 30
0.0
 11
166.438
 21
14.1924
 31
0.0
  0
LINE
  8
0
 62
     0
 10
166.438
 20
14.1924
 30
0.0
 11
165.621
 21
14.0781
 31
0.0
  0
LINE
  8
0
 62
     0
 10
165.621
 20
14.0781
 30
0.0
 11
166.011
 21
11.3041
 31
0.0
  0
LINE
  8
0
 62
     0
 10
166.011
 20
11.3041
 30
0.0
 11
166.828
 21
11.4198
 31
0.0
  0
LINE
  8
0
 62
     0
 10
166.828
 20
11.4198
 30
0.0
 11
167.7
 21
5.21035
 31
0.0
  0
LINE
  8
0
 62
     0
 10
167.7
 20
5.21035
 30
0.0
 11
169.409
 21
5.45013
 31
0.0
  0
LINE
  8
0
 62
     0
 10
169.409
 20
5.45013
 30
0.0
 11
169.546
 21
4.48
 31
0.0
  0
LINE
  8
0
 62
     0
 10
169.546
 20
4.48
 30
0.0
 11
172.813
 21
4.93889
 31
0.0
  0
LINE
  8
0
 62
     0
 10
172.813
 20
4.93889
 30
0.0
 11
172.678
 21
5.9104
 31
0.0
  0
LINE
  8
0
 62
     0
 10
172.678
 20
5.9104
 30
0.0
 11
174.385
 21
6.15019
 31
0.0
  0
LINE
  8
0
 62
     0
 10
174.385
 20
6.15019
 30
0.0
 11
173.764
 21
10.5765
 31
0.0
  0
LINE
  8
0
 62
     0
 10
173.764
 20
10.5765
 30
0.0
 11
175.274
 21
10.7887
 31
0.0
  0
LINE
  8
0
 62
     0
 10
175.274
 20
10.7887
 30
0.0
 11
175.927
 21
6.13502
 31
0.0
  0
LINE
  8
0
 62
     0
 10
175.927
 20
6.13502
 30
0.0
 11
189.792
 21
8.08359
 31
0.0
  0
LINE
  8
0
 62
     0
 10
189.792
 20
8.08359
 30
0.0
 11
189.137
 21
12.7372
 31
0.0
  0
LINE
  8
0
 62
     0
 10
189.137
 20
12.7372
 30
0.0
 11
190.647
 21
12.9494
 31
0.0
  0
LINE
  8
0
 62
     0
 10
190.647
 20
12.9494
 30
0.0
 11
191.269
 21
8.52318
 31
0.0
  0
LINE
  8
0
 62
     0
 10
191.269
 20
8.52318
 30
0.0
 11
192.978
 21
8.76293
 31
0.0
  0
LINE
  8
0
 62
     0
 10
192.978
 20
8.76293
 30
0.0
 11
193.114
 21
7.79279
 31
0.0
  0
LINE
  8
0
 62
     0
 10
193.114
 20
7.79279
 30
0.0
 11
196.382
 21
8.25168
 31
0.0
  0
LINE
  8
0
 62
     0
 10
196.382
 20
8.25168
 30
0.0
 11
196.245
 21
9.22182
 31
0.0
  0
LINE
  8
0
 62
     0
 10
196.245
 20
9.22182
 30
0.0
 11
197.954
 21
9.46298
 31
0.0
  0
LINE
  8
0
 62
     0
 10
197.954
 20
9.46298
 30
0.0
 11
197.081
 21
15.6711
 31
0.0
  0
LINE
  8
0
 62
     0
 10
197.081
 20
15.6711
 30
0.0
 11
197.899
 21
15.7868
 31
0.0
  0
LINE
  8
0
 62
     0
 10
197.899
 20
15.7868
 30
0.0
 11
197.509
 21
18.5594
 31
0.0
  0
LINE
  8
0
 62
     0
 10
197.509
 20
18.5594
 30
0.0
 11
196.692
 21
18.4451
 31
0.0
  0
LINE
  8
0
 62
     0
 10
196.692
 20
18.4451
 30
0.0
 11
196.241
 21
21.6421
 31
0.0
  0
LINE
  8
0
 62
     0
 10
196.241
 20
21.6421
 30
0.0
 11
194.534
 21
21.4023
 31
0.0
  0
LINE
  8
0
 62
     0
 10
194.534
 20
21.4023
 30
0.0
 11
194.405
 21
22.3132
 31
0.0
  0
LINE
  8
0
 62
     0
 10
194.405
 20
22.3132
 30
0.0
 11
191.138
 21
21.8543
 31
0.0
  0
LINE
  8
0
 62
     0
 10
86.3053
 20
23.9944
 30
0.0
 11
84.5965
 21
24.2356
 31
0.0
  0
LINE
  8
0
 62
     0
 10
84.5965
 20
24.2356
 30
0.0
 11
83.724
 21
18.0261
 31
0.0
  0
LINE
  8
0
 62
     0
 10
83.724
 20
18.0261
 30
0.0
 11
82.907
 21
18.1405
 31
0.0
  0
LINE
  8
0
 62
     0
 10
82.907
 20
18.1405
 30
0.0
 11
82.5168
 21
15.3679
 31
0.0
  0
LINE
  8
0
 62
     0
 10
82.5168
 20
15.3679
 30
0.0
 11
83.3342
 21
15.2535
 31
0.0
  0
LINE
  8
0
 62
     0
 10
83.3342
 20
15.2535
 30
0.0
 11
82.8848
 21
12.0551
 31
0.0
  0
LINE
  8
0
 62
     0
 10
82.8848
 20
12.0551
 30
0.0
 11
84.5936
 21
11.8139
 31
0.0
  0
LINE
  8
0
 62
     0
 10
84.5936
 20
11.8139
 30
0.0
 11
84.4656
 21
10.9031
 31
0.0
  0
LINE
  8
0
 62
     0
 10
84.4656
 20
10.9031
 30
0.0
 11
87.7327
 21
10.4442
 31
0.0
  0
LINE
  8
0
 62
     0
 10
87.7327
 20
10.4442
 30
0.0
 11
87.8611
 21
11.355
 31
0.0
  0
LINE
  8
0
 62
     0
 10
87.8611
 20
11.355
 30
0.0
 11
89.5696
 21
11.1153
 31
0.0
  0
LINE
  8
0
 62
     0
 10
89.5696
 20
11.1153
 30
0.0
 11
90.019
 21
14.3137
 31
0.0
  0
LINE
  8
0
 62
     0
 10
90.019
 20
14.3137
 30
0.0
 11
91.5278
 21
14.1015
 31
0.0
  0
LINE
  8
0
 62
     0
 10
91.5278
 20
14.1015
 30
0.0
 11
90.8748
 21
9.44785
 31
0.0
  0
LINE
  8
0
 62
     0
 10
90.8748
 20
9.44785
 30
0.0
 11
104.739
 21
7.4979
 31
0.0
  0
LINE
  8
0
 62
     0
 10
104.739
 20
7.4979
 30
0.0
 11
105.392
 21
12.1529
 31
0.0
  0
LINE
  8
0
 62
     0
 10
105.392
 20
12.1529
 30
0.0
 11
106.903
 21
11.9407
 31
0.0
  0
LINE
  8
0
 62
     0
 10
106.903
 20
11.9407
 30
0.0
 11
106.454
 21
8.74229
 31
0.0
  0
LINE
  8
0
 62
     0
 10
106.454
 20
8.74229
 30
0.0
 11
108.161
 21
8.50251
 31
0.0
  0
LINE
  8
0
 62
     0
 10
108.161
 20
8.50251
 30
0.0
 11
108.034
 21
7.5916
 31
0.0
  0
LINE
  8
0
 62
     0
 10
108.034
 20
7.5916
 30
0.0
 11
111.301
 21
7.13133
 31
0.0
  0
LINE
  8
0
 62
     0
 10
111.301
 20
7.13133
 30
0.0
 11
111.429
 21
8.04362
 31
0.0
  0
LINE
  8
0
 62
     0
 10
111.429
 20
8.04362
 30
0.0
 11
113.137
 21
7.80246
 31
0.0
  0
LINE
  8
0
 62
     0
 10
113.137
 20
7.80246
 30
0.0
 11
113.587
 21
11.0009
 31
0.0
  0
LINE
  8
0
 62
     0
 10
113.587
 20
11.0009
 30
0.0
 11
114.405
 21
10.8865
 31
0.0
  0
LINE
  8
0
 62
     0
 10
114.405
 20
10.8865
 30
0.0
 11
114.793
 21
13.6591
 31
0.0
  0
LINE
  8
0
 62
     0
 10
114.793
 20
13.6591
 30
0.0
 11
113.976
 21
13.7749
 31
0.0
  0
LINE
  8
0
 62
     0
 10
113.976
 20
13.7749
 30
0.0
 11
114.85
 21
19.9829
 31
0.0
  0
LINE
  8
0
 62
     0
 10
114.85
 20
19.9829
 30
0.0
 11
113.141
 21
20.2241
 31
0.0
  0
LINE
  8
0
 62
     0
 10
113.141
 20
20.2241
 30
0.0
 11
113.278
 21
21.1928
 31
0.0
  0
LINE
  8
0
 62
     0
 10
113.278
 20
21.1928
 30
0.0
 11
110.01
 21
21.6531
 31
0.0
  0
LINE
  8
0
 62
     0
 10
110.01
 20
21.6531
 30
0.0
 11
109.874
 21
20.683
 31
0.0
  0
LINE
  8
0
 62
     0
 10
109.874
 20
20.683
 30
0.0
 11
108.165
 21
20.9228
 31
0.0
  0
LINE
  8
0
 62
     0
 10
108.165
 20
20.9228
 30
0.0
 11
107.542
 21
16.4965
 31
0.0
  0
LINE
  8
0
 62
     0
 10
107.542
 20
16.4965
 30
0.0
 11
106.033
 21
16.7087
 31
0.0
  0
LINE
  8
0
 62
     0
 10
106.033
 20
16.7087
 30
0.0
 11
106.686
 21
21.3624
 31
0.0
  0
LINE
  8
0
 62
     0
 10
106.686
 20
21.3624
 30
0.0
 11
92.8232
 21
23.3109
 31
0.0
  0
LINE
  8
0
 62
     0
 10
92.8232
 20
23.3109
 30
0.0
 11
92.1702
 21
18.6573
 31
0.0
  0
LINE
  8
0
 62
     0
 10
92.1702
 20
18.6573
 30
0.0
 11
90.6582
 21
18.8695
 31
0.0
  0
LINE
  8
0
 62
     0
 10
90.6582
 20
18.8695
 30
0.0
 11
91.2813
 21
23.2958
 31
0.0
  0
LINE
  8
0
 62
     0
 10
91.2813
 20
23.2958
 30
0.0
 11
89.5724
 21
23.5355
 31
0.0
  0
LINE
  8
0
 62
     0
 10
89.5724
 20
23.5355
 30
0.0
 11
89.7089
 21
24.5071
 31
0.0
  0
LINE
  8
0
 62
     0
 10
89.7089
 20
24.5071
 30
0.0
 11
86.4415
 21
24.9659
 31
0.0
  0
LINE
  8
0
 62
     0
 10
86.4415
 20
24.9659
 30
0.0
 11
86.3053
 21
23.9944
 31
0.0
  0
LINE
  8
0
 62
     0
 10
211.897
 20
25.327
 30
0.0
 11
213.845
 21
11.4639
 31
0.0
  0
LINE
  8
0
 62
     0
 10
213.845
 20
11.4639
 30
0.0
 11
227.71
 21
13.4124
 31
0.0
  0
LINE
  8
0
 62
     0
 10
227.71
 20
13.4124
 30
0.0
 11
225.76
 21
27.2755
 31
0.0
  0
LINE
  8
0
 62
     0
 10
225.76
 20
27.2755
 30
0.0
 11
211.897
 21
25.327
 31
0.0
  0
LINE
  8
0
 62
     0
 10
60.2188
 20
13.7556
 30
0.0
 11
74.0833
 21
11.807
 31
0.0
  0
LINE
  8
0
 62
     0
 10
74.0833
 20
11.807
 30
0.0
 11
76.0317
 21
25.6701
 31
0.0
  0
LINE
  8
0
 62
     0
 10
76.0317
 20
25.6701
 30
0.0
 11
62.169
 21
27.62
 31
0.0
  0
LINE
  8
0
 62
     0
 10
62.169
 20
27.62
 30
0.0
 11
60.2188
 21
13.7556
 31
0.0
  0
LINE
  8
0
 62
     0
 10
301.418
 20
27.6062
 30
0.0
 11
315.419
 21
27.6062
 31
0.0
  0
LINE
  8
0
 62
     0
 10
315.419
 20
27.6062
 30
0.0
 11
315.419
 21
13.6067
 31
0.0
  0
LINE
  8
0
 62
     0
 10
315.419
 20
13.6067
 30
0.0
 11
301.418
 21
13.6067
 31
0.0
  0
LINE
  8
0
 62
     0
 10
301.418
 20
13.6067
 30
0.0
 11
301.418
 21
27.6062
 31
0.0
  0
LINE
  8
0
 62
     0
 10
277.416
 20
27.6062
 30
0.0
 11
291.415
 21
27.6062
 31
0.0
  0
LINE
  8
0
 62
     0
 10
291.415
 20
27.6062
 30
0.0
 11
291.415
 21
13.6067
 31
0.0
  0
LINE
  8
0
 62
     0
 10
291.415
 20
13.6067
 30
0.0
 11
277.416
 21
13.6067
 31
0.0
  0
LINE
  8
0
 62
     0
 10
277.416
 20
13.6067
 30
0.0
 11
277.416
 21
27.6062
 31
0.0
  0
LINE
  8
0
 62
     0
 10
6.90534
 20
27.6062
 30
0.0
 11
20.9048
 21
27.6062
 31
0.0
  0
LINE
  8
0
 62
     0
 10
20.9048
 20
27.6062
 30
0.0
 11
20.9048
 21
13.6067
 31
0.0
  0
LINE
  8
0
 62
     0
 10
20.9048
 20
13.6067
 30
0.0
 11
6.90534
 21
13.6067
 31
0.0
  0
LINE
  8
0
 62
     0
 10
6.90534
 20
13.6067
 30
0.0
 11
6.90534
 21
27.6062
 31
0.0
  0
LINE
  8
0
 62
     0
 10
123.049
 20
24.1625
 30
0.0
 11
136.912
 21
22.214
 31
0.0
  0
LINE
  8
0
 62
     0
 10
136.912
 20
22.214
 30
0.0
 11
138.862
 21
36.0786
 31
0.0
  0
LINE
  8
0
 62
     0
 10
138.862
 20
36.0786
 30
0.0
 11
124.995
 21
38.027
 31
0.0
  0
LINE
  8
0
 62
     0
 10
124.995
 20
38.027
 30
0.0
 11
123.049
 21
24.1625
 31
0.0
  0
LINE
  8
0
 62
     0
 10
154.821
 20
36.5442
 30
0.0
 11
156.77
 21
22.6798
 31
0.0
  0
LINE
  8
0
 62
     0
 10
156.77
 20
22.6798
 30
0.0
 11
170.633
 21
24.6269
 31
0.0
  0
LINE
  8
0
 62
     0
 10
170.633
 20
24.6269
 30
0.0
 11
168.686
 21
38.4912
 31
0.0
  0
LINE
  8
0
 62
     0
 10
168.686
 20
38.4912
 30
0.0
 11
154.821
 21
36.5442
 31
0.0
  0
LINE
  8
0
 62
     0
 10
104.184
 20
26.8139
 30
0.0
 11
118.048
 21
24.8653
 31
0.0
  0
LINE
  8
0
 62
     0
 10
118.048
 20
24.8653
 30
0.0
 11
119.997
 21
38.7297
 31
0.0
  0
LINE
  8
0
 62
     0
 10
119.997
 20
38.7297
 30
0.0
 11
106.132
 21
40.677
 31
0.0
  0
LINE
  8
0
 62
     0
 10
106.132
 20
40.677
 30
0.0
 11
104.184
 21
26.8139
 31
0.0
  0
LINE
  8
0
 62
     0
 10
173.685
 20
39.1943
 30
0.0
 11
175.635
 21
25.3311
 31
0.0
  0
LINE
  8
0
 62
     0
 10
175.635
 20
25.3311
 30
0.0
 11
189.498
 21
27.2796
 31
0.0
  0
LINE
  8
0
 62
     0
 10
189.498
 20
27.2796
 30
0.0
 11
187.55
 21
41.1427
 31
0.0
  0
LINE
  8
0
 62
     0
 10
187.55
 20
41.1427
 30
0.0
 11
173.685
 21
39.1943
 31
0.0
  0
LINE
  8
0
 62
     0
 10
85.32
 20
29.4652
 30
0.0
 11
99.1828
 21
27.5167
 31
0.0
  0
LINE
  8
0
 62
     0
 10
99.1828
 20
27.5167
 30
0.0
 11
101.133
 21
41.3812
 31
0.0
  0
LINE
  8
0
 62
     0
 10
101.133
 20
41.3812
 30
0.0
 11
87.2684
 21
43.3296
 31
0.0
  0
LINE
  8
0
 62
     0
 10
87.2684
 20
43.3296
 30
0.0
 11
85.32
 21
29.4652
 31
0.0
  0
LINE
  8
0
 62
     0
 10
192.551
 20
41.8454
 30
0.0
 11
194.499
 21
27.9811
 31
0.0
  0
LINE
  8
0
 62
     0
 10
194.499
 20
27.9811
 30
0.0
 11
208.362
 21
29.931
 31
0.0
  0
LINE
  8
0
 62
     0
 10
208.362
 20
29.931
 30
0.0
 11
206.415
 21
43.7942
 31
0.0
  0
LINE
  8
0
 62
     0
 10
206.415
 20
43.7942
 30
0.0
 11
192.551
 21
41.8454
 31
0.0
  0
LINE
  8
0
 62
     0
 10
66.4559
 20
32.1166
 30
0.0
 11
80.319
 21
30.168
 31
0.0
  0
LINE
  8
0
 62
     0
 10
80.319
 20
30.168
 30
0.0
 11
82.2674
 21
44.0313
 31
0.0
  0
LINE
  8
0
 62
     0
 10
82.2674
 20
44.0313
 30
0.0
 11
68.4029
 21
45.9811
 31
0.0
  0
LINE
  8
0
 62
     0
 10
68.4029
 20
45.9811
 30
0.0
 11
66.4559
 21
32.1166
 31
0.0
  0
LINE
  8
0
 62
     0
 10
211.416
 20
44.4969
 30
0.0
 11
213.363
 21
30.6338
 31
0.0
  0
LINE
  8
0
 62
     0
 10
213.363
 20
30.6338
 30
0.0
 11
227.227
 21
32.581
 31
0.0
  0
LINE
  8
0
 62
     0
 10
227.227
 20
32.581
 30
0.0
 11
225.279
 21
46.4453
 31
0.0
  0
LINE
  8
0
 62
     0
 10
225.279
 20
46.4453
 30
0.0
 11
211.416
 21
44.4969
 31
0.0
  0
LINE
  8
0
 62
     0
 10
16.4303
 20
46.6563
 30
0.0
 11
16.4303
 21
41.9573
 31
0.0
  0
LINE
  8
0
 62
     0
 10
16.4303
 20
41.9573
 30
0.0
 11
14.9049
 21
41.9573
 31
0.0
  0
LINE
  8
0
 62
     0
 10
14.9049
 20
41.9573
 30
0.0
 11
14.9049
 21
45.1859
 31
0.0
  0
LINE
  8
0
 62
     0
 10
14.9049
 20
45.1859
 30
0.0
 11
13.1809
 21
45.1859
 31
0.0
  0
LINE
  8
0
 62
     0
 10
13.1809
 20
45.1859
 30
0.0
 11
13.1809
 21
46.1063
 31
0.0
  0
LINE
  8
0
 62
     0
 10
13.1809
 20
46.1063
 30
0.0
 11
9.88053
 21
46.1063
 31
0.0
  0
LINE
  8
0
 62
     0
 10
9.88053
 20
46.1063
 30
0.0
 11
9.88053
 21
45.1859
 31
0.0
  0
LINE
  8
0
 62
     0
 10
9.88053
 20
45.1859
 30
0.0
 11
8.15523
 21
45.1859
 31
0.0
  0
LINE
  8
0
 62
     0
 10
8.15523
 20
45.1859
 30
0.0
 11
8.15523
 21
41.9573
 31
0.0
  0
LINE
  8
0
 62
     0
 10
8.15523
 20
41.9573
 30
0.0
 11
7.33118
 21
41.9573
 31
0.0
  0
LINE
  8
0
 62
     0
 10
7.33118
 20
41.9573
 30
0.0
 11
7.33118
 21
39.1569
 31
0.0
  0
LINE
  8
0
 62
     0
 10
7.33118
 20
39.1569
 30
0.0
 11
8.15523
 21
39.1569
 31
0.0
  0
LINE
  8
0
 62
     0
 10
8.15523
 20
39.1569
 30
0.0
 11
8.15523
 21
32.8869
 31
0.0
  0
LINE
  8
0
 62
     0
 10
8.15523
 20
32.8869
 30
0.0
 11
9.88053
 21
32.8869
 31
0.0
  0
LINE
  8
0
 62
     0
 10
9.88053
 20
32.8869
 30
0.0
 11
9.88053
 21
31.9071
 31
0.0
  0
LINE
  8
0
 62
     0
 10
9.88053
 20
31.9071
 30
0.0
 11
13.1809
 21
31.9071
 31
0.0
  0
LINE
  8
0
 62
     0
 10
13.1809
 20
31.9071
 30
0.0
 11
13.1809
 21
32.8869
 31
0.0
  0
LINE
  8
0
 62
     0
 10
13.1809
 20
32.8869
 30
0.0
 11
14.9049
 21
32.8869
 31
0.0
  0
LINE
  8
0
 62
     0
 10
14.9049
 20
32.8869
 30
0.0
 11
14.9049
 21
37.356
 31
0.0
  0
LINE
  8
0
 62
     0
 10
14.9049
 20
37.356
 30
0.0
 11
16.4303
 21
37.356
 31
0.0
  0
LINE
  8
0
 62
     0
 10
16.4303
 20
37.356
 30
0.0
 11
16.4303
 21
32.6567
 31
0.0
  0
LINE
  8
0
 62
     0
 10
16.4303
 20
32.6567
 30
0.0
 11
30.4298
 21
32.6567
 31
0.0
  0
LINE
  8
0
 62
     0
 10
30.4298
 20
32.6567
 30
0.0
 11
30.4298
 21
37.356
 31
0.0
  0
LINE
  8
0
 62
     0
 10
30.4298
 20
37.356
 30
0.0
 11
31.9553
 21
37.356
 31
0.0
  0
LINE
  8
0
 62
     0
 10
31.9553
 20
37.356
 30
0.0
 11
31.9553
 21
32.8869
 31
0.0
  0
LINE
  8
0
 62
     0
 10
31.9553
 20
32.8869
 30
0.0
 11
33.6806
 21
32.8869
 31
0.0
  0
LINE
  8
0
 62
     0
 10
33.6806
 20
32.8869
 30
0.0
 11
33.6806
 21
31.9071
 31
0.0
  0
LINE
  8
0
 62
     0
 10
33.6806
 20
31.9071
 30
0.0
 11
36.981
 21
31.9071
 31
0.0
  0
LINE
  8
0
 62
     0
 10
36.981
 20
31.9071
 30
0.0
 11
36.981
 21
32.8869
 31
0.0
  0
LINE
  8
0
 62
     0
 10
36.981
 20
32.8869
 30
0.0
 11
38.705
 21
32.8869
 31
0.0
  0
LINE
  8
0
 62
     0
 10
38.705
 20
32.8869
 30
0.0
 11
38.705
 21
39.1569
 31
0.0
  0
LINE
  8
0
 62
     0
 10
38.705
 20
39.1569
 30
0.0
 11
39.5305
 21
39.1569
 31
0.0
  0
LINE
  8
0
 62
     0
 10
39.5305
 20
39.1569
 30
0.0
 11
39.5305
 21
41.9573
 31
0.0
  0
LINE
  8
0
 62
     0
 10
39.5305
 20
41.9573
 30
0.0
 11
38.705
 21
41.9573
 31
0.0
  0
LINE
  8
0
 62
     0
 10
38.705
 20
41.9573
 30
0.0
 11
38.705
 21
45.1859
 31
0.0
  0
LINE
  8
0
 62
     0
 10
38.705
 20
45.1859
 30
0.0
 11
36.981
 21
45.1859
 31
0.0
  0
LINE
  8
0
 62
     0
 10
36.981
 20
45.1859
 30
0.0
 11
36.981
 21
46.1063
 31
0.0
  0
LINE
  8
0
 62
     0
 10
36.981
 20
46.1063
 30
0.0
 11
33.6806
 21
46.1063
 31
0.0
  0
LINE
  8
0
 62
     0
 10
33.6806
 20
46.1063
 30
0.0
 11
33.6806
 21
45.1859
 31
0.0
  0
LINE
  8
0
 62
     0
 10
33.6806
 20
45.1859
 30
0.0
 11
31.9553
 21
45.1859
 31
0.0
  0
LINE
  8
0
 62
     0
 10
31.9553
 20
45.1859
 30
0.0
 11
31.9553
 21
41.9573
 31
0.0
  0
LINE
  8
0
 62
     0
 10
31.9553
 20
41.9573
 30
0.0
 11
30.4298
 21
41.9573
 31
0.0
  0
LINE
  8
0
 62
     0
 10
30.4298
 20
41.9573
 30
0.0
 11
30.4298
 21
46.6563
 31
0.0
  0
LINE
  8
0
 62
     0
 10
30.4298
 20
46.6563
 30
0.0
 11
16.4303
 21
46.6563
 31
0.0
  0
LINE
  8
0
 62
     0
 10
303.991
 20
46.6563
 30
0.0
 11
317.991
 21
46.6563
 31
0.0
  0
LINE
  8
0
 62
     0
 10
317.991
 20
46.6563
 30
0.0
 11
317.991
 21
32.6567
 31
0.0
  0
LINE
  8
0
 62
     0
 10
317.991
 20
32.6567
 30
0.0
 11
303.991
 21
32.6567
 31
0.0
  0
LINE
  8
0
 62
     0
 10
303.991
 20
32.6567
 30
0.0
 11
303.991
 21
46.6563
 31
0.0
  0
LINE
  8
0
 62
     0
 10
277.606
 20
46.6563
 30
0.0
 11
291.605
 21
46.6563
 31
0.0
  0
LINE
  8
0
 62
     0
 10
291.605
 20
46.6563
 30
0.0
 11
291.605
 21
32.6567
 31
0.0
  0
LINE
  8
0
 62
     0
 10
291.605
 20
32.6567
 30
0.0
 11
277.606
 21
32.6567
 31
0.0
  0
LINE
  8
0
 62
     0
 10
277.606
 20
32.6567
 30
0.0
 11
277.606
 21
46.6563
 31
0.0
  0
LINE
  8
0
 62
     0
 10
251.412
 20
46.6563
 30
0.0
 11
265.413
 21
46.6563
 31
0.0
  0
LINE
  8
0
 62
     0
 10
265.413
 20
46.6563
 30
0.0
 11
265.413
 21
32.6567
 31
0.0
  0
LINE
  8
0
 62
     0
 10
265.413
 20
32.6567
 30
0.0
 11
251.412
 21
32.6567
 31
0.0
  0
LINE
  8
0
 62
     0
 10
251.412
 20
32.6567
 30
0.0
 11
251.412
 21
46.6563
 31
0.0
  0
LINE
  8
0
 62
     0
 10
232.362
 20
46.6563
 30
0.0
 11
246.363
 21
46.6563
 31
0.0
  0
LINE
  8
0
 62
     0
 10
246.363
 20
46.6563
 30
0.0
 11
246.363
 21
32.6567
 31
0.0
  0
LINE
  8
0
 62
     0
 10
246.363
 20
32.6567
 30
0.0
 11
232.362
 21
32.6567
 31
0.0
  0
LINE
  8
0
 62
     0
 10
232.362
 20
32.6567
 30
0.0
 11
232.362
 21
46.6563
 31
0.0
  0
LINE
  8
0
 62
     0
 10
47.5781
 20
46.6563
 30
0.0
 11
61.5777
 21
46.6563
 31
0.0
  0
LINE
  8
0
 62
     0
 10
61.5777
 20
46.6563
 30
0.0
 11
61.5777
 21
32.6567
 31
0.0
  0
LINE
  8
0
 62
     0
 10
61.5777
 20
32.6567
 30
0.0
 11
47.5781
 21
32.6567
 31
0.0
  0
LINE
  8
0
 62
     0
 10
47.5781
 20
32.6567
 30
0.0
 11
47.5781
 21
46.6563
 31
0.0
  0
LINE
  8
0
 62
     0
 10
117.399
 20
44.1935
 30
0.0
 11
131.264
 21
42.2451
 31
0.0
  0
LINE
  8
0
 62
     0
 10
131.264
 20
42.2451
 30
0.0
 11
133.212
 21
56.1097
 31
0.0
  0
LINE
  8
0
 62
     0
 10
133.212
 20
56.1097
 30
0.0
 11
119.349
 21
58.0581
 31
0.0
  0
LINE
  8
0
 62
     0
 10
119.349
 20
58.0581
 30
0.0
 11
117.399
 21
44.1935
 31
0.0
  0
LINE
  8
0
 62
     0
 10
161.603
 20
56.7337
 30
0.0
 11
163.551
 21
42.8696
 31
0.0
  0
LINE
  8
0
 62
     0
 10
163.551
 20
42.8696
 30
0.0
 11
177.414
 21
44.8179
 31
0.0
  0
LINE
  8
0
 62
     0
 10
177.414
 20
44.8179
 30
0.0
 11
175.467
 21
58.6811
 31
0.0
  0
LINE
  8
0
 62
     0
 10
175.467
 20
58.6811
 30
0.0
 11
161.603
 21
56.7337
 31
0.0
  0
LINE
  8
0
 62
     0
 10
98.5354
 20
46.845
 30
0.0
 11
112.4
 21
44.8966
 31
0.0
  0
LINE
  8
0
 62
     0
 10
112.4
 20
44.8966
 30
0.0
 11
114.347
 21
58.7608
 31
0.0
  0
LINE
  8
0
 62
     0
 10
114.347
 20
58.7608
 30
0.0
 11
100.484
 21
60.7081
 31
0.0
  0
LINE
  8
0
 62
     0
 10
100.484
 20
60.7081
 30
0.0
 11
98.5354
 21
46.845
 31
0.0
  0
LINE
  8
0
 62
     0
 10
180.467
 20
59.3852
 30
0.0
 11
182.415
 21
45.5207
 31
0.0
  0
LINE
  8
0
 62
     0
 10
182.415
 20
45.5207
 30
0.0
 11
196.28
 21
47.4694
 31
0.0
  0
LINE
  8
0
 62
     0
 10
196.28
 20
47.4694
 30
0.0
 11
194.331
 21
61.3336
 31
0.0
  0
LINE
  8
0
 62
     0
 10
194.331
 20
61.3336
 30
0.0
 11
180.467
 21
59.3852
 31
0.0
  0
LINE
  8
0
 62
     0
 10
79.6699
 20
49.4965
 30
0.0
 11
93.5344
 21
47.5477
 31
0.0
  0
LINE
  8
0
 62
     0
 10
93.5344
 20
47.5477
 30
0.0
 11
95.4828
 21
61.4109
 31
0.0
  0
LINE
  8
0
 62
     0
 10
95.4828
 20
61.4109
 30
0.0
 11
81.6197
 21
63.3607
 31
0.0
  0
LINE
  8
0
 62
     0
 10
81.6197
 20
63.3607
 30
0.0
 11
79.6699
 21
49.4965
 31
0.0
  0
LINE
  8
0
 62
     0
 10
199.332
 20
62.0353
 30
0.0
 11
201.279
 21
48.1722
 31
0.0
  0
LINE
  8
0
 62
     0
 10
201.279
 20
48.1722
 30
0.0
 11
215.143
 21
50.1206
 31
0.0
  0
LINE
  8
0
 62
     0
 10
215.143
 20
50.1206
 30
0.0
 11
213.195
 21
63.9851
 31
0.0
  0
LINE
  8
0
 62
     0
 10
213.195
 20
63.9851
 30
0.0
 11
199.332
 21
62.0353
 31
0.0
  0
LINE
  8
0
 62
     0
 10
60.8058
 20
52.1476
 30
0.0
 11
74.6689
 21
50.1992
 31
0.0
  0
LINE
  8
0
 62
     0
 10
74.6689
 20
50.1992
 30
0.0
 11
76.6191
 21
64.0623
 31
0.0
  0
LINE
  8
0
 62
     0
 10
76.6191
 20
64.0623
 30
0.0
 11
62.7546
 21
66.0121
 31
0.0
  0
LINE
  8
0
 62
     0
 10
62.7546
 20
66.0121
 30
0.0
 11
60.8058
 21
52.1476
 31
0.0
  0
LINE
  8
0
 62
     0
 10
218.196
 20
64.6878
 30
0.0
 11
220.144
 21
50.8233
 31
0.0
  0
LINE
  8
0
 62
     0
 10
220.144
 20
50.8233
 30
0.0
 11
234.009
 21
52.772
 31
0.0
  0
LINE
  8
0
 62
     0
 10
234.009
 20
52.772
 30
0.0
 11
232.059
 21
66.6351
 31
0.0
  0
LINE
  8
0
 62
     0
 10
232.059
 20
66.6351
 30
0.0
 11
218.196
 21
64.6878
 31
0.0
  0
LINE
  8
0
 62
     0
 10
289.322
 20
65.7063
 30
0.0
 11
289.322
 21
61.0073
 31
0.0
  0
LINE
  8
0
 62
     0
 10
289.322
 20
61.0073
 30
0.0
 11
287.796
 21
61.0073
 31
0.0
  0
LINE
  8
0
 62
     0
 10
287.796
 20
61.0073
 30
0.0
 11
287.796
 21
64.2359
 31
0.0
  0
LINE
  8
0
 62
     0
 10
287.796
 20
64.2359
 30
0.0
 11
286.071
 21
64.2359
 31
0.0
  0
LINE
  8
0
 62
     0
 10
286.071
 20
64.2359
 30
0.0
 11
286.071
 21
65.1563
 31
0.0
  0
LINE
  8
0
 62
     0
 10
286.071
 20
65.1563
 30
0.0
 11
282.772
 21
65.1563
 31
0.0
  0
LINE
  8
0
 62
     0
 10
282.772
 20
65.1563
 30
0.0
 11
282.772
 21
64.2359
 31
0.0
  0
LINE
  8
0
 62
     0
 10
282.772
 20
64.2359
 30
0.0
 11
281.047
 21
64.2359
 31
0.0
  0
LINE
  8
0
 62
     0
 10
281.047
 20
64.2359
 30
0.0
 11
281.047
 21
61.0073
 31
0.0
  0
LINE
  8
0
 62
     0
 10
281.047
 20
61.0073
 30
0.0
 11
280.221
 21
61.0073
 31
0.0
  0
LINE
  8
0
 62
     0
 10
280.221
 20
61.0073
 30
0.0
 11
280.221
 21
58.2069
 31
0.0
  0
LINE
  8
0
 62
     0
 10
280.221
 20
58.2069
 30
0.0
 11
281.047
 21
58.2069
 31
0.0
  0
LINE
  8
0
 62
     0
 10
281.047
 20
58.2069
 30
0.0
 11
281.047
 21
51.937
 31
0.0
  0
LINE
  8
0
 62
     0
 10
281.047
 20
51.937
 30
0.0
 11
282.772
 21
51.937
 31
0.0
  0
LINE
  8
0
 62
     0
 10
282.772
 20
51.937
 30
0.0
 11
282.772
 21
50.957
 31
0.0
  0
LINE
  8
0
 62
     0
 10
282.772
 20
50.957
 30
0.0
 11
286.071
 21
50.957
 31
0.0
  0
LINE
  8
0
 62
     0
 10
286.071
 20
50.957
 30
0.0
 11
286.071
 21
51.937
 31
0.0
  0
LINE
  8
0
 62
     0
 10
286.071
 20
51.937
 30
0.0
 11
287.796
 21
51.937
 31
0.0
  0
LINE
  8
0
 62
     0
 10
287.796
 20
51.937
 30
0.0
 11
287.796
 21
56.406
 31
0.0
  0
LINE
  8
0
 62
     0
 10
287.796
 20
56.406
 30
0.0
 11
289.322
 21
56.406
 31
0.0
  0
LINE
  8
0
 62
     0
 10
289.322
 20
56.406
 30
0.0
 11
289.322
 21
51.7066
 31
0.0
  0
LINE
  8
0
 62
     0
 10
289.322
 20
51.7066
 30
0.0
 11
303.322
 21
51.7066
 31
0.0
  0
LINE
  8
0
 62
     0
 10
303.322
 20
51.7066
 30
0.0
 11
303.322
 21
56.406
 31
0.0
  0
LINE
  8
0
 62
     0
 10
303.322
 20
56.406
 30
0.0
 11
304.847
 21
56.406
 31
0.0
  0
LINE
  8
0
 62
     0
 10
304.847
 20
56.406
 30
0.0
 11
304.847
 21
51.937
 31
0.0
  0
LINE
  8
0
 62
     0
 10
304.847
 20
51.937
 30
0.0
 11
306.572
 21
51.937
 31
0.0
  0
LINE
  8
0
 62
     0
 10
306.572
 20
51.937
 30
0.0
 11
306.572
 21
50.957
 31
0.0
  0
LINE
  8
0
 62
     0
 10
306.572
 20
50.957
 30
0.0
 11
309.871
 21
50.957
 31
0.0
  0
LINE
  8
0
 62
     0
 10
309.871
 20
50.957
 30
0.0
 11
309.871
 21
51.937
 31
0.0
  0
LINE
  8
0
 62
     0
 10
309.871
 20
51.937
 30
0.0
 11
311.597
 21
51.937
 31
0.0
  0
LINE
  8
0
 62
     0
 10
311.597
 20
51.937
 30
0.0
 11
311.597
 21
58.2069
 31
0.0
  0
LINE
  8
0
 62
     0
 10
311.597
 20
58.2069
 30
0.0
 11
312.422
 21
58.2069
 31
0.0
  0
LINE
  8
0
 62
     0
 10
312.422
 20
58.2069
 30
0.0
 11
312.422
 21
61.0073
 31
0.0
  0
LINE
  8
0
 62
     0
 10
312.422
 20
61.0073
 30
0.0
 11
311.597
 21
61.0073
 31
0.0
  0
LINE
  8
0
 62
     0
 10
311.597
 20
61.0073
 30
0.0
 11
311.597
 21
64.2359
 31
0.0
  0
LINE
  8
0
 62
     0
 10
311.597
 20
64.2359
 30
0.0
 11
309.871
 21
64.2359
 31
0.0
  0
LINE
  8
0
 62
     0
 10
309.871
 20
64.2359
 30
0.0
 11
309.871
 21
65.1563
 31
0.0
  0
LINE
  8
0
 62
     0
 10
309.871
 20
65.1563
 30
0.0
 11
306.572
 21
65.1563
 31
0.0
  0
LINE
  8
0
 62
     0
 10
306.572
 20
65.1563
 30
0.0
 11
306.572
 21
64.2359
 31
0.0
  0
LINE
  8
0
 62
     0
 10
306.572
 20
64.2359
 30
0.0
 11
304.847
 21
64.2359
 31
0.0
  0
LINE
  8
0
 62
     0
 10
304.847
 20
64.2359
 30
0.0
 11
304.847
 21
61.0073
 31
0.0
  0
LINE
  8
0
 62
     0
 10
304.847
 20
61.0073
 30
0.0
 11
303.322
 21
61.0073
 31
0.0
  0
LINE
  8
0
 62
     0
 10
303.322
 20
61.0073
 30
0.0
 11
303.322
 21
65.7063
 31
0.0
  0
LINE
  8
0
 62
     0
 10
303.322
 20
65.7063
 30
0.0
 11
289.322
 21
65.7063
 31
0.0
  0
LINE
  8
0
 62
     0
 10
258.366
 20
65.7063
 30
0.0
 11
272.365
 21
65.7063
 31
0.0
  0
LINE
  8
0
 62
     0
 10
272.365
 20
65.7063
 30
0.0
 11
272.365
 21
51.7066
 31
0.0
  0
LINE
  8
0
 62
     0
 10
272.365
 20
51.7066
 30
0.0
 11
258.366
 21
51.7066
 31
0.0
  0
LINE
  8
0
 62
     0
 10
258.366
 20
51.7066
 30
0.0
 11
258.366
 21
65.7063
 31
0.0
  0
LINE
  8
0
 62
     0
 10
239.316
 20
65.7063
 30
0.0
 11
253.315
 21
65.7063
 31
0.0
  0
LINE
  8
0
 62
     0
 10
253.315
 20
65.7063
 30
0.0
 11
253.315
 21
51.7066
 31
0.0
  0
LINE
  8
0
 62
     0
 10
253.315
 20
51.7066
 30
0.0
 11
239.316
 21
51.7066
 31
0.0
  0
LINE
  8
0
 62
     0
 10
239.316
 20
51.7066
 30
0.0
 11
239.316
 21
65.7063
 31
0.0
  0
LINE
  8
0
 62
     0
 10
41.1
 20
65.7063
 30
0.0
 11
55.1007
 21
65.7063
 31
0.0
  0
LINE
  8
0
 62
     0
 10
55.1007
 20
65.7063
 30
0.0
 11
55.1007
 21
51.7066
 31
0.0
  0
LINE
  8
0
 62
     0
 10
55.1007
 20
51.7066
 30
0.0
 11
41.1
 21
51.7066
 31
0.0
  0
LINE
  8
0
 62
     0
 10
41.1
 20
51.7066
 30
0.0
 11
41.1
 21
65.7063
 31
0.0
  0
LINE
  8
0
 62
     0
 10
14.7161
 20
65.7063
 30
0.0
 11
28.7155
 21
65.7063
 31
0.0
  0
LINE
  8
0
 62
     0
 10
28.7155
 20
65.7063
 30
0.0
 11
28.7155
 21
51.7066
 31
0.0
  0
LINE
  8
0
 62
     0
 10
28.7155
 20
51.7066
 30
0.0
 11
14.7161
 21
51.7066
 31
0.0
  0
LINE
  8
0
 62
     0
 10
14.7161
 20
51.7066
 30
0.0
 11
14.7161
 21
65.7063
 31
0.0
  0
LINE
  8
0
 62
     0
 10
154.047
 20
74.9088
 30
0.0
 11
155.994
 21
61.0443
 31
0.0
  0
LINE
  8
0
 62
     0
 10
155.994
 20
61.0443
 30
0.0
 11
169.858
 21
62.9931
 31
0.0
  0
LINE
  8
0
 62
     0
 10
169.858
 20
62.9931
 30
0.0
 11
167.91
 21
76.8572
 31
0.0
  0
LINE
  8
0
 62
     0
 10
167.91
 20
76.8572
 30
0.0
 11
154.047
 21
74.9088
 31
0.0
  0
LINE
  8
0
 62
     0
 10
115.9
 20
63.6418
 30
0.0
 11
129.764
 21
61.6934
 31
0.0
  0
LINE
  8
0
 62
     0
 10
129.764
 20
61.6934
 30
0.0
 11
131.713
 21
75.5579
 31
0.0
  0
LINE
  8
0
 62
     0
 10
131.713
 20
75.5579
 30
0.0
 11
117.85
 21
77.5049
 31
0.0
  0
LINE
  8
0
 62
     0
 10
117.85
 20
77.5049
 30
0.0
 11
115.9
 21
63.6418
 31
0.0
  0
LINE
  8
0
 62
     0
 10
172.911
 20
77.56
 30
0.0
 11
174.859
 21
63.6972
 31
0.0
  0
LINE
  8
0
 62
     0
 10
174.859
 20
63.6972
 30
0.0
 11
188.724
 21
65.6442
 31
0.0
  0
LINE
  8
0
 62
     0
 10
188.724
 20
65.6442
 30
0.0
 11
186.775
 21
79.5087
 31
0.0
  0
LINE
  8
0
 62
     0
 10
186.775
 20
79.5087
 30
0.0
 11
172.911
 21
77.56
 31
0.0
  0
LINE
  8
0
 62
     0
 10
97.0361
 20
66.2933
 30
0.0
 11
110.9
 21
64.3449
 31
0.0
  0
LINE
  8
0
 62
     0
 10
110.9
 20
64.3449
 30
0.0
 11
112.849
 21
78.2091
 31
0.0
  0
LINE
  8
0
 62
     0
 10
112.849
 20
78.2091
 30
0.0
 11
98.9845
 21
80.1564
 31
0.0
  0
LINE
  8
0
 62
     0
 10
98.9845
 20
80.1564
 30
0.0
 11
97.0361
 21
66.2933
 31
0.0
  0
LINE
  8
0
 62
     0
 10
191.776
 20
80.2114
 30
0.0
 11
193.723
 21
66.3469
 31
0.0
  0
LINE
  8
0
 62
     0
 10
193.723
 20
66.3469
 30
0.0
 11
207.588
 21
68.2957
 31
0.0
  0
LINE
  8
0
 62
     0
 10
207.588
 20
68.2957
 30
0.0
 11
205.639
 21
82.1602
 31
0.0
  0
LINE
  8
0
 62
     0
 10
205.639
 20
82.1602
 30
0.0
 11
191.776
 21
80.2114
 31
0.0
  0
LINE
  8
0
 62
     0
 10
78.172
 20
68.9448
 30
0.0
 11
92.0351
 21
66.996
 31
0.0
  0
LINE
  8
0
 62
     0
 10
92.0351
 20
66.996
 30
0.0
 11
93.9835
 21
80.8591
 31
0.0
  0
LINE
  8
0
 62
     0
 10
93.9835
 20
80.8591
 30
0.0
 11
80.1204
 21
82.8089
 31
0.0
  0
LINE
  8
0
 62
     0
 10
80.1204
 20
82.8089
 30
0.0
 11
78.172
 21
68.9448
 31
0.0
  0
LINE
  8
0
 62
     0
 10
210.64
 20
82.8629
 30
0.0
 11
212.588
 21
68.9984
 31
0.0
  0
LINE
  8
0
 62
     0
 10
212.588
 20
68.9984
 30
0.0
 11
226.453
 21
70.9468
 31
0.0
  0
LINE
  8
0
 62
     0
 10
226.453
 20
70.9468
 30
0.0
 11
224.503
 21
84.8099
 31
0.0
  0
LINE
  8
0
 62
     0
 10
224.503
 20
84.8099
 30
0.0
 11
210.64
 21
82.8629
 31
0.0
  0
LINE
  8
0
 62
     0
 10
59.3065
 20
71.5959
 30
0.0
 11
73.1711
 21
69.6475
 31
0.0
  0
LINE
  8
0
 62
     0
 10
73.1711
 20
69.6475
 30
0.0
 11
75.1198
 21
83.5106
 31
0.0
  0
LINE
  8
0
 62
     0
 10
75.1198
 20
83.5106
 30
0.0
 11
61.2553
 21
85.459
 31
0.0
  0
LINE
  8
0
 62
     0
 10
61.2553
 20
85.459
 30
0.0
 11
59.3065
 21
71.5959
 31
0.0
  0
LINE
  8
0
 62
     0
 10
293.704
 20
84.7563
 30
0.0
 11
307.703
 21
84.7563
 31
0.0
  0
LINE
  8
0
 62
     0
 10
307.703
 20
84.7563
 30
0.0
 11
307.703
 21
70.7566
 31
0.0
  0
LINE
  8
0
 62
     0
 10
307.703
 20
70.7566
 30
0.0
 11
293.704
 21
70.7566
 31
0.0
  0
LINE
  8
0
 62
     0
 10
293.704
 20
70.7566
 30
0.0
 11
293.704
 21
84.7563
 31
0.0
  0
LINE
  8
0
 62
     0
 10
269.89
 20
84.7563
 30
0.0
 11
283.891
 21
84.7563
 31
0.0
  0
LINE
  8
0
 62
     0
 10
283.891
 20
84.7563
 30
0.0
 11
283.891
 21
70.7566
 31
0.0
  0
LINE
  8
0
 62
     0
 10
283.891
 20
70.7566
 30
0.0
 11
269.89
 21
70.7566
 31
0.0
  0
LINE
  8
0
 62
     0
 10
269.89
 20
70.7566
 30
0.0
 11
269.89
 21
84.7563
 31
0.0
  0
LINE
  8
0
 62
     0
 10
250.84
 20
84.7563
 30
0.0
 11
264.841
 21
84.7563
 31
0.0
  0
LINE
  8
0
 62
     0
 10
264.841
 20
84.7563
 30
0.0
 11
264.841
 21
70.7566
 31
0.0
  0
LINE
  8
0
 62
     0
 10
264.841
 20
70.7566
 30
0.0
 11
250.84
 21
70.7566
 31
0.0
  0
LINE
  8
0
 62
     0
 10
250.84
 20
70.7566
 30
0.0
 11
250.84
 21
84.7563
 31
0.0
  0
LINE
  8
0
 62
     0
 10
39.1954
 20
84.7563
 30
0.0
 11
53.195
 21
84.7563
 31
0.0
  0
LINE
  8
0
 62
     0
 10
53.195
 20
84.7563
 30
0.0
 11
53.195
 21
70.7566
 31
0.0
  0
LINE
  8
0
 62
     0
 10
53.195
 20
70.7566
 30
0.0
 11
39.1954
 21
70.7566
 31
0.0
  0
LINE
  8
0
 62
     0
 10
39.1954
 20
70.7566
 30
0.0
 11
39.1954
 21
84.7563
 31
0.0
  0
LINE
  8
0
 62
     0
 10
15.3831
 20
84.7563
 30
0.0
 11
29.3825
 21
84.7563
 31
0.0
  0
LINE
  8
0
 62
     0
 10
29.3825
 20
84.7563
 30
0.0
 11
29.3825
 21
70.7566
 31
0.0
  0
LINE
  8
0
 62
     0
 10
29.3825
 20
70.7566
 30
0.0
 11
15.3831
 21
70.7566
 31
0.0
  0
LINE
  8
0
 62
     0
 10
15.3831
 20
70.7566
 30
0.0
 11
15.3831
 21
84.7563
 31
0.0
  0
LINE
  8
0
 62
     0
 10
231.79
 20
85.138
 30
0.0
 11
245.791
 21
85.138
 31
0.0
  0
LINE
  8
0
 62
     0
 10
245.791
 20
85.138
 30
0.0
 11
245.791
 21
71.1369
 31
0.0
  0
LINE
  8
0
 62
     0
 10
245.791
 20
71.1369
 30
0.0
 11
231.79
 21
71.1369
 31
0.0
  0
LINE
  8
0
 62
     0
 10
231.79
 20
71.1369
 30
0.0
 11
231.79
 21
85.138
 31
0.0
  0
LINE
  8
0
 62
     0
 10
128.174
 20
81.1541
 30
0.0
 11
142.037
 21
79.2057
 31
0.0
  0
LINE
  8
0
 62
     0
 10
142.037
 20
79.2057
 30
0.0
 11
143.986
 21
93.0698
 31
0.0
  0
LINE
  8
0
 62
     0
 10
143.986
 20
93.0698
 30
0.0
 11
130.121
 21
95.0186
 31
0.0
  0
LINE
  8
0
 62
     0
 10
130.121
 20
95.0186
 30
0.0
 11
128.174
 21
81.1541
 31
0.0
  0
LINE
  8
0
 62
     0
 10
160.828
 20
95.0983
 30
0.0
 11
162.775
 21
81.2352
 31
0.0
  0
LINE
  8
0
 62
     0
 10
162.775
 20
81.2352
 30
0.0
 11
176.64
 21
83.1839
 31
0.0
  0
LINE
  8
0
 62
     0
 10
176.64
 20
83.1839
 30
0.0
 11
174.691
 21
97.047
 31
0.0
  0
LINE
  8
0
 62
     0
 10
174.691
 20
97.047
 30
0.0
 11
160.828
 21
95.0983
 31
0.0
  0
LINE
  8
0
 62
     0
 10
109.309
 20
83.8055
 30
0.0
 11
123.172
 21
81.8568
 31
0.0
  0
LINE
  8
0
 62
     0
 10
123.172
 20
81.8568
 30
0.0
 11
125.12
 21
95.7199
 31
0.0
  0
LINE
  8
0
 62
     0
 10
125.12
 20
95.7199
 30
0.0
 11
111.256
 21
97.6697
 31
0.0
  0
LINE
  8
0
 62
     0
 10
111.256
 20
97.6697
 30
0.0
 11
109.309
 21
83.8055
 31
0.0
  0
LINE
  8
0
 62
     0
 10
179.692
 20
97.7512
 30
0.0
 11
181.641
 21
83.8867
 31
0.0
  0
LINE
  8
0
 62
     0
 10
181.641
 20
83.8867
 30
0.0
 11
195.505
 21
85.834
 31
0.0
  0
LINE
  8
0
 62
     0
 10
195.505
 20
85.834
 30
0.0
 11
193.555
 21
99.6982
 31
0.0
  0
LINE
  8
0
 62
     0
 10
193.555
 20
99.6982
 30
0.0
 11
179.692
 21
97.7512
 31
0.0
  0
LINE
  8
0
 62
     0
 10
90.4434
 20
86.4567
 30
0.0
 11
104.308
 21
84.5083
 31
0.0
  0
LINE
  8
0
 62
     0
 10
104.308
 20
84.5083
 30
0.0
 11
106.256
 21
98.3728
 31
0.0
  0
LINE
  8
0
 62
     0
 10
106.256
 20
98.3728
 30
0.0
 11
92.3918
 21
100.321
 31
0.0
  0
LINE
  8
0
 62
     0
 10
92.3918
 20
100.321
 30
0.0
 11
90.4434
 21
86.4567
 31
0.0
  0
LINE
  8
0
 62
     0
 10
198.556
 20
100.401
 30
0.0
 11
200.504
 21
86.5382
 31
0.0
  0
LINE
  8
0
 62
     0
 10
200.504
 20
86.5382
 30
0.0
 11
214.369
 21
88.4865
 31
0.0
  0
LINE
  8
0
 62
     0
 10
214.369
 20
88.4865
 30
0.0
 11
212.421
 21
102.35
 31
0.0
  0
LINE
  8
0
 62
     0
 10
212.421
 20
102.35
 30
0.0
 11
198.556
 21
100.401
 31
0.0
  0
LINE
  8
0
 62
     0
 10
71.5793
 20
89.1081
 30
0.0
 11
85.4438
 21
87.1594
 31
0.0
  0
LINE
  8
0
 62
     0
 10
85.4438
 20
87.1594
 30
0.0
 11
87.3912
 21
101.024
 31
0.0
  0
LINE
  8
0
 62
     0
 10
87.3912
 20
101.024
 30
0.0
 11
73.5281
 21
102.971
 31
0.0
  0
LINE
  8
0
 62
     0
 10
73.5281
 20
102.971
 30
0.0
 11
71.5793
 21
89.1081
 31
0.0
  0
LINE
  8
0
 62
     0
 10
217.422
 20
103.052
 30
0.0
 11
219.37
 21
89.1879
 31
0.0
  0
LINE
  8
0
 62
     0
 10
219.37
 20
89.1879
 30
0.0
 11
233.233
 21
91.138
 31
0.0
  0
LINE
  8
0
 62
     0
 10
233.233
 20
91.138
 30
0.0
 11
231.284
 21
105.001
 31
0.0
  0
LINE
  8
0
 62
     0
 10
231.284
 20
105.001
 30
0.0
 11
217.422
 21
103.052
 31
0.0
  0
LINE
  8
0
 62
     0
 10
286.654
 20
104.188
 30
0.0
 11
286.654
 21
99.4876
 31
0.0
  0
LINE
  8
0
 62
     0
 10
286.654
 20
99.4876
 30
0.0
 11
285.13
 21
99.4876
 31
0.0
  0
LINE
  8
0
 62
     0
 10
285.13
 20
99.4876
 30
0.0
 11
285.13
 21
102.718
 31
0.0
  0
LINE
  8
0
 62
     0
 10
285.13
 20
102.718
 30
0.0
 11
283.405
 21
102.718
 31
0.0
  0
LINE
  8
0
 62
     0
 10
283.405
 20
102.718
 30
0.0
 11
283.405
 21
103.638
 31
0.0
  0
LINE
  8
0
 62
     0
 10
283.405
 20
103.638
 30
0.0
 11
280.104
 21
103.638
 31
0.0
  0
LINE
  8
0
 62
     0
 10
280.104
 20
103.638
 30
0.0
 11
280.104
 21
102.718
 31
0.0
  0
LINE
  8
0
 62
     0
 10
280.104
 20
102.718
 30
0.0
 11
278.379
 21
102.718
 31
0.0
  0
LINE
  8
0
 62
     0
 10
278.379
 20
102.718
 30
0.0
 11
278.379
 21
99.4876
 31
0.0
  0
LINE
  8
0
 62
     0
 10
278.379
 20
99.4876
 30
0.0
 11
277.555
 21
99.4876
 31
0.0
  0
LINE
  8
0
 62
     0
 10
277.555
 20
99.4876
 30
0.0
 11
277.555
 21
96.6872
 31
0.0
  0
LINE
  8
0
 62
     0
 10
277.555
 20
96.6872
 30
0.0
 11
278.379
 21
96.6872
 31
0.0
  0
LINE
  8
0
 62
     0
 10
278.379
 20
96.6872
 30
0.0
 11
278.379
 21
90.4173
 31
0.0
  0
LINE
  8
0
 62
     0
 10
278.379
 20
90.4173
 30
0.0
 11
280.104
 21
90.4173
 31
0.0
  0
LINE
  8
0
 62
     0
 10
280.104
 20
90.4173
 30
0.0
 11
280.104
 21
89.4373
 31
0.0
  0
LINE
  8
0
 62
     0
 10
280.104
 20
89.4373
 30
0.0
 11
283.405
 21
89.4373
 31
0.0
  0
LINE
  8
0
 62
     0
 10
283.405
 20
89.4373
 30
0.0
 11
283.405
 21
90.4173
 31
0.0
  0
LINE
  8
0
 62
     0
 10
283.405
 20
90.4173
 30
0.0
 11
285.13
 21
90.4173
 31
0.0
  0
LINE
  8
0
 62
     0
 10
285.13
 20
90.4173
 30
0.0
 11
285.13
 21
94.8877
 31
0.0
  0
LINE
  8
0
 62
     0
 10
285.13
 20
94.8877
 30
0.0
 11
286.654
 21
94.8877
 31
0.0
  0
LINE
  8
0
 62
     0
 10
286.654
 20
94.8877
 30
0.0
 11
286.654
 21
90.1883
 31
0.0
  0
LINE
  8
0
 62
     0
 10
286.654
 20
90.1883
 30
0.0
 11
300.655
 21
90.1883
 31
0.0
  0
LINE
  8
0
 62
     0
 10
300.655
 20
90.1883
 30
0.0
 11
300.655
 21
94.8877
 31
0.0
  0
LINE
  8
0
 62
     0
 10
300.655
 20
94.8877
 30
0.0
 11
302.179
 21
94.8877
 31
0.0
  0
LINE
  8
0
 62
     0
 10
302.179
 20
94.8877
 30
0.0
 11
302.179
 21
90.4173
 31
0.0
  0
LINE
  8
0
 62
     0
 10
302.179
 20
90.4173
 30
0.0
 11
303.904
 21
90.4173
 31
0.0
  0
LINE
  8
0
 62
     0
 10
303.904
 20
90.4173
 30
0.0
 11
303.904
 21
89.4373
 31
0.0
  0
LINE
  8
0
 62
     0
 10
303.904
 20
89.4373
 30
0.0
 11
307.205
 21
89.4373
 31
0.0
  0
LINE
  8
0
 62
     0
 10
307.205
 20
89.4373
 30
0.0
 11
307.205
 21
90.4173
 31
0.0
  0
LINE
  8
0
 62
     0
 10
307.205
 20
90.4173
 30
0.0
 11
308.93
 21
90.4173
 31
0.0
  0
LINE
  8
0
 62
     0
 10
308.93
 20
90.4173
 30
0.0
 11
308.93
 21
96.6872
 31
0.0
  0
LINE
  8
0
 62
     0
 10
308.93
 20
96.6872
 30
0.0
 11
309.754
 21
96.6872
 31
0.0
  0
LINE
  8
0
 62
     0
 10
309.754
 20
96.6872
 30
0.0
 11
309.754
 21
99.4876
 31
0.0
  0
LINE
  8
0
 62
     0
 10
309.754
 20
99.4876
 30
0.0
 11
308.93
 21
99.4876
 31
0.0
  0
LINE
  8
0
 62
     0
 10
308.93
 20
99.4876
 30
0.0
 11
308.93
 21
102.718
 31
0.0
  0
LINE
  8
0
 62
     0
 10
308.93
 20
102.718
 30
0.0
 11
307.205
 21
102.718
 31
0.0
  0
LINE
  8
0
 62
     0
 10
307.205
 20
102.718
 30
0.0
 11
307.205
 21
103.638
 31
0.0
  0
LINE
  8
0
 62
     0
 10
307.205
 20
103.638
 30
0.0
 11
303.904
 21
103.638
 31
0.0
  0
LINE
  8
0
 62
     0
 10
303.904
 20
103.638
 30
0.0
 11
303.904
 21
102.718
 31
0.0
  0
LINE
  8
0
 62
     0
 10
303.904
 20
102.718
 30
0.0
 11
302.179
 21
102.718
 31
0.0
  0
LINE
  8
0
 62
     0
 10
302.179
 20
102.718
 30
0.0
 11
302.179
 21
99.4876
 31
0.0
  0
LINE
  8
0
 62
     0
 10
302.179
 20
99.4876
 30
0.0
 11
300.655
 21
99.4876
 31
0.0
  0
LINE
  8
0
 62
     0
 10
300.655
 20
99.4876
 30
0.0
 11
300.655
 21
104.188
 31
0.0
  0
LINE
  8
0
 62
     0
 10
300.655
 20
104.188
 30
0.0
 11
286.654
 21
104.188
 31
0.0
  0
LINE
  8
0
 62
     0
 10
258.079
 20
104.188
 30
0.0
 11
272.08
 21
104.188
 31
0.0
  0
LINE
  8
0
 62
     0
 10
272.08
 20
104.188
 30
0.0
 11
272.08
 21
90.1883
 31
0.0
  0
LINE
  8
0
 62
     0
 10
272.08
 20
90.1883
 30
0.0
 11
258.079
 21
90.1883
 31
0.0
  0
LINE
  8
0
 62
     0
 10
258.079
 20
90.1883
 30
0.0
 11
258.079
 21
104.188
 31
0.0
  0
LINE
  8
0
 62
     0
 10
239.029
 20
104.188
 30
0.0
 11
253.03
 21
104.188
 31
0.0
  0
LINE
  8
0
 62
     0
 10
253.03
 20
104.188
 30
0.0
 11
253.03
 21
90.1883
 31
0.0
  0
LINE
  8
0
 62
     0
 10
253.03
 20
90.1883
 30
0.0
 11
239.029
 21
90.1883
 31
0.0
  0
LINE
  8
0
 62
     0
 10
239.029
 20
90.1883
 30
0.0
 11
239.029
 21
104.188
 31
0.0
  0
LINE
  8
0
 62
     0
 10
32.5272
 20
104.188
 30
0.0
 11
46.5282
 21
104.188
 31
0.0
  0
LINE
  8
0
 62
     0
 10
46.5282
 20
104.188
 30
0.0
 11
46.5282
 21
90.1883
 31
0.0
  0
LINE
  8
0
 62
     0
 10
46.5282
 20
90.1883
 30
0.0
 11
32.5272
 21
90.1883
 31
0.0
  0
LINE
  8
0
 62
     0
 10
32.5272
 20
90.1883
 30
0.0
 11
32.5272
 21
104.188
 31
0.0
  0
LINE
  8
0
 62
     0
 10
13.4772
 20
104.188
 30
0.0
 11
27.4781
 21
104.188
 31
0.0
  0
LINE
  8
0
 62
     0
 10
27.4781
 20
104.188
 30
0.0
 11
27.4781
 21
90.1883
 31
0.0
  0
LINE
  8
0
 62
     0
 10
27.4781
 20
90.1883
 30
0.0
 11
13.4772
 21
90.1883
 31
0.0
  0
LINE
  8
0
 62
     0
 10
13.4772
 20
90.1883
 30
0.0
 11
13.4772
 21
104.188
 31
0.0
  0
LINE
  8
0
 62
     0
 10
51.5772
 20
104.76
 30
0.0
 11
65.5782
 21
104.76
 31
0.0
  0
LINE
  8
0
 62
     0
 10
65.5782
 20
104.76
 30
0.0
 11
65.5782
 21
90.7591
 31
0.0
  0
LINE
  8
0
 62
     0
 10
65.5782
 20
90.7591
 30
0.0
 11
51.5772
 21
90.7591
 31
0.0
  0
LINE
  8
0
 62
     0
 10
51.5772
 20
90.7591
 30
0.0
 11
51.5772
 21
104.76
 31
0.0
  0
ENDSEC
  0
EOF
